<?xml version="1.0" encoding="UTF-8"?>
<svg width="60px" height="60px" viewBox="0 0 60 60" version="1.1" xmlns="http://www.w3.org/2000/svg" xmlns:xlink="http://www.w3.org/1999/xlink">
    <defs>
        <circle id="path-1" cx="18" cy="18" r="18"></circle>
        <filter x="-51.4%" y="-48.6%" width="202.8%" height="202.8%" filterUnits="objectBoundingBox" id="filter-2">
            <feOffset dx="0" dy="1" in="SourceAlpha" result="shadowOffsetOuter1"></feOffset>
            <feGaussianBlur stdDeviation="6" in="shadowOffsetOuter1" result="shadowBlurOuter1"></feGaussianBlur>
            <feColorMatrix values="0 0 0 0 0.722609793   0 0 0 0 0.740983749   0 0 0 0 0.77100317  0 0 0 0.180534309 0" type="matrix" in="shadowBlurOuter1"></feColorMatrix>
        </filter>
    </defs>
    <g id="页面-1" stroke="none" stroke-width="1" fill="none" fill-rule="evenodd">
        <g id="助理市场" transform="translate(-1840, -1001)">
            <g id="编组-7" transform="translate(1852, 1012)">
                <g id="椭圆形">
                    <use fill="black" fill-opacity="1" filter="url(#filter-2)" xlink:href="#path-1"></use>
                    <use fill="#FFFFFF" fill-rule="evenodd" xlink:href="#path-1"></use>
                </g>
                <g id="问号" transform="translate(8, 8)" fill="#323233" fill-rule="nonzero">
                    <rect id="矩形" opacity="0" x="0" y="0" width="20" height="20"></rect>
                    <path d="M9.8203125,13.6542969 C9.44140625,13.6542969 9.1328125,13.3476562 9.1328125,12.9667969 L9.1328125,12.4433594 C9.11132812,11.9785156 9.17382812,11.5664062 9.32421875,11.2070312 C9.47265625,10.8476562 9.76953125,10.5234375 10.2128906,10.2363281 L10.1953125,10.2363281 C10.5820312,9.9375 10.9082031,9.671875 11.1738281,9.43945312 C11.4394531,9.20703125 11.6328125,9.0078125 11.7539063,8.84179687 C11.9746094,8.5546875 12.0976563,8.17382812 12.1191406,7.69726562 C12.1308594,7.41992187 12.0820313,7.16992187 11.9785156,6.94140625 C11.8769531,6.72070312 11.7304688,6.50390625 11.5390625,6.2890625 C11.5273438,6.27734375 11.515625,6.26367187 11.5039063,6.25195312 C11.0976563,5.85546875 10.578125,5.65625 9.9453125,5.65625 C9.33789063,5.65625 8.83984375,5.89648437 8.453125,6.37890625 C8.15429688,6.75 7.95507813,7.27929688 7.85351563,7.96875 C7.80078125,8.33398437 7.46484375,8.58984375 7.09960938,8.54882812 C6.72070313,8.50585938 6.44726563,8.1640625 6.49414063,7.78515625 C6.54101562,7.40625 6.62109375,7.05664062 6.73632812,6.734375 C6.91796875,6.2265625 7.1640625,5.796875 7.47460938,5.44921875 C7.78515625,5.1015625 8.15039063,4.8359375 8.5703125,4.65234375 C8.99023438,4.47070312 9.44921875,4.37890625 9.94726563,4.37890625 C10.9980469,4.37890625 11.8496094,4.68945312 12.5019531,5.30859375 C13.1757813,5.94921875 13.5136719,6.74609375 13.5136719,7.69726562 C13.5136719,8.05078125 13.4667969,8.38085937 13.3730469,8.68359375 C13.2792969,8.98828125 13.1542969,9.26171875 13,9.50390625 C12.8339844,9.7578125 12.5898438,10.0351562 12.2695312,10.3339844 C11.9492188,10.6328125 11.5507813,10.9472656 11.0761719,11.2792969 C10.8554688,11.4335937 10.7109375,11.5859375 10.6445312,11.7363281 C10.578125,11.8847656 10.5449219,12.1152344 10.5449219,12.4257812 L10.5449219,12.9667969 C10.5449219,13.3457031 10.2382812,13.6542969 9.85742187,13.6542969 L9.8203125,13.6542969 L9.8203125,13.6542969 Z M9.140625,15.078125 C9.140625,15.4664502 9.45542479,15.78125 9.84375,15.78125 C10.2320752,15.78125 10.546875,15.4664502 10.546875,15.078125 C10.546875,14.6897998 10.2320752,14.375 9.84375,14.375 C9.45542479,14.375 9.140625,14.6897998 9.140625,15.078125 Z" id="形状"></path>
                </g>
            </g>
        </g>
    </g>
</svg>
