<?xml version="1.0" encoding="UTF-8"?>
<svg width="16px" height="16px" viewBox="0 0 16 16" version="1.1" xmlns="http://www.w3.org/2000/svg" xmlns:xlink="http://www.w3.org/1999/xlink">
    <title>岗位组备份</title>
    <g id="页面-1" stroke="none" stroke-width="1" fill="none" fill-rule="evenodd">
        <g id="icon未选中备份" transform="translate(-26, -686)">
            <g id="编组-23" transform="translate(12, 13)">
                <g id="编组-8" transform="translate(0, 52)">
                    <g id="岗位组备份" transform="translate(14, 621)">
                        <rect id="矩形" fill="currentColor" fill-rule="nonzero" opacity="0" x="0" y="0" width="16" height="16"></rect>
                        <path d="M13.6799893,3.1 L8.4,3.1 L6.88000712,1.6 L2.32001069,1.6 C1.91688043,1.6 1.53025971,1.75802808 1.2452019,2.03933233 C0.960144092,2.32063658 0.8,2.70216899 0.8,3.1 L0.8,12.9000044 C0.8,13.297831 0.960144092,13.6793634 1.2452019,13.9606677 C1.53025971,14.2419719 1.91688043,14.4 2.32001069,14.4 L13.6799893,14.4 C14.0831196,14.4 14.4697403,14.2419719 14.7547981,13.9606677 C15.0398559,13.6793634 15.2,13.297831 15.2,12.9000044 L15.2,4.6 C15.2,4.2021646 15.0398559,3.82063218 14.7547981,3.53932793 C14.4697403,3.25802368 14.0831196,3.1 13.6799893,3.1 Z" id="形状结合" stroke="#495363" fill-rule="nonzero"></path>
                        <g id="用户-fill备份-2" transform="translate(3.0253, 5)"></g>
                        <path d="M4.75599236,8.36203629 C3.86179367,8.78539218 3.02525408,10.1376741 3.02525408,11.1791766 C3.02525408,12.2812179 8.35859002,12.2659807 8.35859002,11.1791766 C8.35816643,10.1352072 7.49670616,8.78415549 6.5999458,8.36203629 M5.68788119,5.00000016 C6.67822666,5.00000016 7.48054802,5.78946649 7.48054802,6.76384307 C7.48054802,7.73780959 6.67822666,8.52686586 5.68788119,8.52686586 C4.697529,8.52686586 3.89521437,7.73780959 3.89521437,6.76384307 C3.89521437,5.78987655 4.69753573,5.00000016 5.68788119,5.00000016 Z" id="形状" stroke="#495363" fill-rule="nonzero"></path>
                        <rect id="矩形" fill="#495363" fill-rule="nonzero" x="9.33333626" y="6.66666764" width="2.66666667" height="1" rx="0.5"></rect>
                        <rect id="矩形备份-2" fill="#495363" fill-rule="nonzero" x="9.33333626" y="9.33333594" width="4" height="1" rx="0.5"></rect>
                    </g>
                </g>
            </g>
        </g>
    </g>
</svg>
