<svg t="1770107627884" class="icon" viewBox="0 0 1024 1024" version="1.1" xmlns="http://www.w3.org/2000/svg" p-id="6145" width="16" height="16"><path d="M235.733333 789.546667m-32 0a32 32 0 1 0 64 0 32 32 0 1 0-64 0Z" p-id="6146"></path><path d="M884.48 290.986667a29.653333 29.653333 0 0 0-21.333333-19.626667 30.72 30.72 0 0 0-28.373334 7.893333l-135.04 135.04-85.333333-5.973333-5.973333-85.333333 136.106666-134.186667a29.866667 29.866667 0 0 0-11.733333-49.493333 234.666667 234.666667 0 0 0-300.373333 170.666666 234.666667 234.666667 0 0 0 5.546666 124.586667l-277.333333 277.333333a108.373333 108.373333 0 0 0-16.213333 135.253334 106.666667 106.666667 0 0 0 78.933333 48.853333 96.64 96.64 0 0 0 11.306667 0 106.666667 106.666667 0 0 0 75.306666-31.146667l279.04-279.04a234.666667 234.666667 0 0 0 295.466667-294.826666zM848.426667 405.333333A192 192 0 0 1 704 549.76a189.653333 189.653333 0 0 1-113.066667-8.533333l-13.013333-5.12-298.666667 298.666666a64 64 0 0 1-99.2-10.88A65.92 65.92 0 0 1 192 742.186667l296.533333-296.533334-5.12-13.013333a189.013333 189.013333 0 0 1-8.533333-112.853333A192 192 0 0 1 618.666667 175.573333 198.826667 198.826667 0 0 1 661.333333 170.666667a181.76 181.76 0 0 1 37.333334 3.84l-132.906667 132.906666 8.32 117.333334 1.066667 5.333333a29.226667 29.226667 0 0 0 18.773333 18.986667l122.666667 9.173333 133.12-132.906667a192 192 0 0 1-1.28 80z" p-id="6147"></path></svg>
